<svg width="24" height="24" xmlns="http://www.w3.org/2000/svg">

 <g>
  <title>background</title>
  <rect fill="none" id="canvas_background" height="402" width="582" y="-1" x="-1"/>
 </g>
 <g>
  <title>Layer 1</title>
  <path fill="#ffffff" id="svg_3" d="m7.828,19c-0.801,0 -1.555,-0.312 -2.121,-0.879l-5.121,-5.121l5.121,-5.121c1.133,-1.134 3.112,-1.134 4.243,0.001c1.169,1.168 1.169,3.072 -0.001,4.241l-0.878,0.879l0.878,0.879c1.17,1.169 1.17,3.073 0,4.242c-0.564,0.567 -1.318,0.879 -2.121,0.879zm-4.414,-6l3.707,3.707c0.38,0.379 1.039,0.377 1.413,0.001c0.391,-0.391 0.391,-1.025 0.001,-1.415l-2.292,-2.293l2.292,-2.293c0.39,-0.39 0.39,-1.024 0,-1.414c-0.378,-0.379 -1.036,-0.377 -1.414,0l-3.707,3.707z"/>
  <path fill="#ffffff" id="svg_6" d="m16.172,19c-0.803,0 -1.557,-0.312 -2.122,-0.88c-1.169,-1.168 -1.169,-3.072 0.001,-4.241l0.878,-0.879l-0.878,-0.879c-1.17,-1.169 -1.17,-3.073 0,-4.242c1.129,-1.133 3.109,-1.134 4.242,0l5.121,5.121l-5.121,5.121c-0.566,0.567 -1.32,0.879 -2.121,0.879zm-0.001,-10c-0.267,0 -0.518,0.104 -0.705,0.292c-0.391,0.391 -0.391,1.025 -0.001,1.415l2.292,2.293l-2.292,2.293c-0.39,0.39 -0.39,1.024 0,1.414c0.377,0.378 1.035,0.379 1.414,0l3.707,-3.707l-3.707,-3.707c-0.19,-0.189 -0.441,-0.293 -0.708,-0.293z"/>
 </g>
</svg>